<svg width="60" height="60" viewBox="0 0 60 60" fill="none" xmlns="http://www.w3.org/2000/svg">
<path d="M0 30C0 13.4315 13.4315 0 30 0V0C46.5685 0 60 13.4315 60 30V30C60 46.5685 46.5685 60 30 60V60C13.4315 60 0 46.5685 0 30V30Z" fill="#292828"/>
<path d="M19 20C19 17.7909 20.7909 16 23 16H42C44.2091 16 46 17.7909 46 20V31C46 33.2091 44.2091 35 42 35H23C20.7909 35 19 33.2091 19 31V20Z" fill="url(#paint0_linear_1_2)" fill-opacity="0.7"/>
<rect opacity="0.15" x="12" y="24" width="25" height="18" rx="4" fill="url(#paint1_linear_1_2)"/>
<g filter="url(#filter0_bdi_1_2)">
<path d="M42 25C42 22.7909 40.2091 21 38 21H17C14.7909 21 13 22.7909 13 25V35.8182C13 38.0273 14.7909 39.8182 17 39.8182H36H42V44V25Z" fill="url(#paint2_linear_1_2)" fill-opacity="0.25" shape-rendering="crispEdges"/>
<path d="M42 25C42 22.7909 40.2091 21 38 21H17C14.7909 21 13 22.7909 13 25V35.8182C13 38.0273 14.7909 39.8182 17 39.8182H36H42V44V25Z" fill="white" fill-opacity="0.2" shape-rendering="crispEdges"/>
<path d="M41.875 39.6932V25C41.875 22.8599 40.1401 21.125 38 21.125H17C14.8599 21.125 13.125 22.8599 13.125 25V35.8182C13.125 37.9583 14.8599 39.6932 17 39.6932H36H41.875Z" stroke="url(#paint3_linear_1_2)" stroke-opacity="0.7" stroke-width="0.25" shape-rendering="crispEdges"/>
</g>
<path d="M17 26C17 25.4477 17.4477 25 18 25H36C36.5523 25 37 25.4477 37 26V26C37 26.5523 36.5523 27 36 27H18C17.4477 27 17 26.5523 17 26V26Z" fill="#D9D9D9"/>
<path d="M17 30C17 29.4477 17.4477 29 18 29H33C33.5523 29 34 29.4477 34 30V30C34 30.5523 33.5523 31 33 31H18C17.4477 31 17 30.5523 17 30V30Z" fill="#D9D9D9"/>
<path d="M17 34C17 33.4477 17.4477 33 18 33H30C30.5523 33 31 33.4477 31 34V34C31 34.5523 30.5523 35 30 35H18C17.4477 35 17 34.5523 17 34V34Z" fill="#D9D9D9"/>
<defs>
<filter id="filter0_bdi_1_2" x="9" y="17" width="37" height="41" filterUnits="userSpaceOnUse" color-interpolation-filters="sRGB">
<feFlood flood-opacity="0" result="BackgroundImageFix"/>
<feGaussianBlur in="BackgroundImageFix" stdDeviation="2"/>
<feComposite in2="SourceAlpha" operator="in" result="effect1_backgroundBlur_1_2"/>
<feColorMatrix in="SourceAlpha" type="matrix" values="0 0 0 0 0 0 0 0 0 0 0 0 0 0 0 0 0 0 127 0" result="hardAlpha"/>
<feOffset dy="10"/>
<feGaussianBlur stdDeviation="2"/>
<feComposite in2="hardAlpha" operator="out"/>
<feColorMatrix type="matrix" values="0 0 0 0 0 0 0 0 0 0 0 0 0 0 0 0 0 0 0.25 0"/>
<feBlend mode="normal" in2="effect1_backgroundBlur_1_2" result="effect2_dropShadow_1_2"/>
<feBlend mode="normal" in="SourceGraphic" in2="effect2_dropShadow_1_2" result="shape"/>
<feColorMatrix in="SourceAlpha" type="matrix" values="0 0 0 0 0 0 0 0 0 0 0 0 0 0 0 0 0 0 127 0" result="hardAlpha"/>
<feOffset dy="4"/>
<feGaussianBlur stdDeviation="2"/>
<feComposite in2="hardAlpha" operator="arithmetic" k2="-1" k3="1"/>
<feColorMatrix type="matrix" values="0 0 0 0 1 0 0 0 0 1 0 0 0 0 1 0 0 0 0.14 0"/>
<feBlend mode="normal" in2="shape" result="effect3_innerShadow_1_2"/>
</filter>
<linearGradient id="paint0_linear_1_2" x1="32.5" y1="16" x2="32.5" y2="35" gradientUnits="userSpaceOnUse">
<stop stop-color="#D810F9"/>
<stop offset="0.872917" stop-color="#2029F8"/>
</linearGradient>
<linearGradient id="paint1_linear_1_2" x1="24.5" y1="24" x2="24.5" y2="42" gradientUnits="userSpaceOnUse">
<stop stop-color="#D810F9"/>
<stop offset="0.992708" stop-color="#2029F8"/>
</linearGradient>
<linearGradient id="paint2_linear_1_2" x1="27.5" y1="21" x2="27.5" y2="44" gradientUnits="userSpaceOnUse">
<stop stop-color="#D810F9"/>
<stop offset="0.805208" stop-color="#2029F8"/>
</linearGradient>
<linearGradient id="paint3_linear_1_2" x1="27.5" y1="21" x2="27.5" y2="44" gradientUnits="userSpaceOnUse">
<stop stop-color="#D810F9" stop-opacity="0.13"/>
<stop offset="1" stop-color="#2029F8" stop-opacity="0.13"/>
</linearGradient>
</defs>
</svg>
